<svg width="1250" height="954" viewBox="0 0 1250 954" fill="none" xmlns="http://www.w3.org/2000/svg">
<path d="M388.452 218.458L278.757 356.508L333.604 394.247L256.976 405.399V494.693L296.336 558.035L226 643.779L349.94 699.423L376.733 768.978L487.277 712.389L545.761 784.414L709.174 799L736.815 711.52L935.273 723.541L966.268 799L1050 602.624L971.299 468.858L1018.18 374.529L957.054 288.766L877.505 211.59L706.668 185.022L658.095 245.895L619.582 155L545.761 241.611L488.953 155L388.452 218.458Z" fill="white"/>
<path d="M638.419 506.182C684.514 506.182 721.88 464.261 721.88 412.548C721.88 360.836 684.514 318.915 638.419 318.915C592.325 318.915 554.958 360.836 554.958 412.548C554.958 464.261 592.325 506.182 638.419 506.182Z" fill="#A67C52"/>
<path d="M658.456 477H618.383V535.364H658.456V477Z" fill="white"/>
<path d="M586.199 531.105H643.079L690.554 527.418L694.184 619.68H585.571" fill="white"/>
<path d="M674.348 396.914C683.125 396.914 690.24 386.6 690.24 373.877C690.24 361.154 683.125 350.84 674.348 350.84C665.571 350.84 658.456 361.154 658.456 373.877C658.456 386.6 665.571 396.914 674.348 396.914Z" fill="white"/>
<path d="M618.383 396.914C627.16 396.914 634.275 386.6 634.275 373.877C634.275 361.154 627.16 350.84 618.383 350.84C609.606 350.84 602.491 361.154 602.491 373.877C602.491 386.6 609.606 396.914 618.383 396.914Z" fill="white"/>
<path d="M671.49 398.658C676.225 398.658 680.064 394.819 680.064 390.083C680.064 385.347 676.225 381.509 671.49 381.509C666.754 381.509 662.915 385.347 662.915 390.083C662.915 394.819 666.754 398.658 671.49 398.658Z" fill="#070303"/>
<path d="M618.383 398.658C623.119 398.658 626.958 394.819 626.958 390.083C626.958 385.347 623.119 381.509 618.383 381.509C613.647 381.509 609.808 385.347 609.808 390.083C609.808 394.819 613.647 398.658 618.383 398.658Z" fill="#070303"/>
<path d="M464.466 445.332H680.407L827.779 438.986L813.802 643.517L486.046 632.084" fill="#F2F2F2"/>
<path d="M638.819 511.87C640.73 512.057 642.607 512.509 644.394 513.213C645.809 513.789 647.286 514.202 648.795 514.442C650.379 514.401 651.948 514.131 653.454 513.641C655.26 513.096 657.142 512.846 659.028 512.899C661.468 513.023 663.811 513.891 665.744 515.386C666.945 516.378 668.004 517.532 668.888 518.815C667.452 519.832 666.147 521.023 665.001 522.359C663.509 524.208 662.63 526.476 662.487 528.847C662.297 531.412 662.916 533.971 664.258 536.165C665.316 538.118 667.011 539.65 669.06 540.509C667.954 543.295 666.463 545.911 664.63 548.282C661.6 552.284 658.742 554.189 656.055 553.999C654.515 553.816 653.015 553.371 651.624 552.684C650.127 551.984 648.524 551.54 646.881 551.369C645.293 551.327 643.71 551.589 642.221 552.141C640.853 552.673 639.4 552.954 637.933 552.97C634.675 552.742 631.646 549.769 628.845 544.052C626.185 538.995 624.903 533.327 625.128 527.618C625.211 523.328 626.754 519.194 629.502 515.899C630.629 514.518 632.072 513.429 633.709 512.723C635.345 512.016 637.128 511.714 638.906 511.841L638.819 511.87ZM659.342 500.779C659.377 501.016 659.377 501.257 659.342 501.494C659.356 501.703 659.356 501.914 659.342 502.123C659.212 503.624 658.806 505.088 658.142 506.44C657.344 508.05 656.236 509.487 654.883 510.67C653.852 511.624 652.623 512.337 651.282 512.756C650.183 512.984 649.06 513.089 647.937 513.07C648.055 510.157 649.052 507.348 650.795 505.011C652.944 502.614 655.911 501.104 659.113 500.779" fill="#CCCCCC"/>
</svg>
